<?xml version="1.0" standalone="no"?>
<!DOCTYPE svg PUBLIC "-//W3C//DTD SVG 20010904//EN"
 "http://www.w3.org/TR/2001/REC-SVG-20010904/DTD/svg10.dtd">
<svg version="1.0" xmlns="http://www.w3.org/2000/svg"
 width="360.000000pt" height="360.000000pt" viewBox="0 0 360.000000 360.000000"
 preserveAspectRatio="xMidYMid meet">

<g transform="translate(0.000000,360.000000) scale(0.100000,-0.100000)"
fill="#000000" stroke="none">
<path d="M1610 3305 l0 -165 -100 0 -100 0 0 -60 0 -60 155 0 155 0 0 225 0
225 -55 0 -55 0 0 -165z"/>
<path d="M1790 3330 l0 -140 150 0 150 0 0 -25 0 -25 -150 0 -150 0 0 -60 0
-60 208 2 207 3 -1 58 c-1 31 -2 93 -3 137 l-1 80 -149 0 -148 0 5 25 4 25
147 0 147 0 -2 48 c-1 26 -2 52 -3 59 -1 8 -57 12 -206 13 l-205 1 0 -141z"/>
</g>
</svg>
